<svg xmlns="http://www.w3.org/2000/svg" viewBox="0 0 32 32" fill="none" role="img">
  <rect width="32" height="32" rx="6" fill="#3b82f6"/>
  <g transform="translate(2, 2) scale(0.05166)">
    <path fill="white" fill-rule="evenodd" d="M517.2500036-2e-7c-7.92937-.0502105-18.94233 1.3306775-24.15625 2.59375-23.57387 5.71079-64.79353 37.921231-97.25 61.34375-26.86045 19.38409-63.77341 23.094732-68.5 35.75-4.48076 11.9971-46.10554 119.03657-55.6875 131.8125-9.58193 12.77593-39.5344-1.00867-53.375 3.25-13.84055 4.25863-32.99784-4.92669-34.0625-10.25-1.06467-5.3233 23.03647-16.30049-7.3125-7.90625-57.84847 16.00033-48.96555 8.49898-35.125-6.40625 13.8406-14.90523 15.94727-11.6875-4.28125-11.6875-20.22856 0-65.214328 52.54623-51.96875 21.59375 20.43341-47.74922 6.499999-43.39762 6.5-47.65625 0-4.25863-23.158221 31.51808-34.375 39.90625-10.40756 7.78299-.879329-7.51396 1.25-16.03125 2.12934-8.51726 9.17097-13.93074 6.21875-17-6.51714-6.77544-9.59375-44.70909-9.59375-34.0625 0 10.6466-26.60725 85.7999-31.8125 84.6875-6.14378-1.31298-10.76501-42.08866-11.84375-46.34375-1.06467-4.19956-16.24181-10.40339-10.65625-2.125 4.88987 7.24723.02045 106.4418 5.34375 104.3125 5.3233-2.12934 30.875002 12.78126 30.875 12.78125 0 0 14.897619-3.18534 19.15625-4.25 4.25863-1.06466 101.14545 45.77045 106.46875 51.09375 5.3233 5.3233-21.31032 28.76611-22.375 36.21875-1.06466 7.45264 5.32862 8.49018 12.78125 28.71875 7.45264 20.22852-1.56933 61.41762 3.75397 60.35296 5.32329-1.06467 26.04197-42.51786 30.3006-48.90578 4.25863-6.38797 19.1835-15.69068 40.47668-18.88468 21.29319-3.19396 76.67458 31.93968 83.0625 30.875 6.38797-1.06467 11.50434 10.02578 9.375 28.125-2.1293 18.09922-19.22998 18.67817-16.71875 51.09375.87517 11.29672 18.3437 14.14227 28.625 26.1875 2.76479 3.23911-5.33943-8.52262-7.46875-12.78125-2.12934-4.25867 6.40626-7.43749 6.40625-7.4375 0 0-10.64975-.02911-13.84375-1.09375-3.19397-1.06466-9.00095-16.98425-2.125-21.28125 22.76751-14.22808 27.67454 1.06467 34.0625 0 6.38797-1.06467 12.78558 13.82975 10.65625 5.3125-2.12933-8.5173-13.85339-17.02474-24.5-20.21875-10.64659-3.19396-5.03553-15.92991-4.12214-21.28125 1.58765-9.30172 7.05119-10.03105 9.0636-2.86421 2.61639 9.3178 17.57757 22.44212 14.34265 16.44432-3.37246-6.2528-7.50573-17.25935-4.19036-16.73636 2.10333.33179 16.85205 6.6392 12.59375 4.21875-16.32652-9.28013-15.02995-14.10032-15.91196-23.75793 2.1293-2.12929 20.3391-3.52146 25.90514-3.13864-1.94197-4.65245-28.08259-8.2575-30.21193-9.32218-2.12934-1.06467-1.06249-20.21874-1.0625-20.21875 0 0 7.43103-2.11853 10.625-5.3125 3.19401-3.194 17.93103.49568 21.125 2.625 3.19396 2.1293 17.70578-2.1519 24.09375-4.28125 6.38797-2.12929 14.99349 1.20045 18.1875-5.1875 3.19396-6.38797 22.08726.00435 25.28125-2.125 3.19397-2.12933 6.08944-11.71012 8.21875-15.96875 2.12933-4.25863 29.80816-9.15193 31.9375-11.28125 2.12929-2.12934 4.5625-9.86638 4.5625-14.125 0-4.25868 23.09157-14.61852 24.15625-17.8125 1.06463-3.194 5.34593-6.36637 4.28125-10.625-1.06467-4.25867 13.83288-14.89977 19.15625-18.09375 5.32329-3.194 9.59593-24.49355 8.53125-27.6875-1.06466-3.194-14.92669 17.02911-20.25 18.09375-5.32329 1.06466-43.63032 9.58513-56.40625 13.84375-12.77589 4.25863-51.11421 12.77908-56.4375 13.84375-5.32329 1.06463-14.90407-9.58511-15.96875-13.84375-1.06466-4.25863 13.82764-6.40407 6.375-7.46875-7.45263-1.06467-48.96008-21.27261-53.21875-25.53125-4.25863-4.25867 9.58512-11.71442 13.84375-13.84375 4.25863-2.1293 7.43538-5.33294 8.5-10.65625 1.06467-5.32329 13.85775-11.72191 22.375-25.5625 8.5173-13.84055 19.15841-77.70149 18.09375-86.21875-1.06462-8.5173 18.26562-21.73188 23.40625-31.9375 5.35479-10.63083 24.81665-30.66313 37.34375-40.21875 23.90136-18.23177 58.37389-59.637871 56.53125-63.6875-.63433-1.39407075-4.27363-1.9386237-9.03125-1.96875zm-196.90625 406.9375c3.90886-.08145 8.09374 1.24999 8.09375 1.25 4.64303-3.43258.62749 3.41709 1.99318 13.96304 1.20847 9.33191 3.96691 8.85768-11.27839.46764-7.85168-4.32107-15.25505 1.78391-5.30854-11.71193 1.81489-2.46252 3.45978-3.9054 6.5-3.96875z"/>
  </g>
</svg>
